<?xml version="1.0" standalone="no"?><!DOCTYPE svg PUBLIC "-//W3C//DTD SVG 1.1//EN" "http://www.w3.org/Graphics/SVG/1.1/DTD/svg11.dtd"><svg t="1679225151455" class="icon" viewBox="0 0 1024 1024" version="1.1" xmlns="http://www.w3.org/2000/svg" p-id="1052" xmlns:xlink="http://www.w3.org/1999/xlink" width="200" height="200"><path d="M375.47008 238.94016v498.80064c-28.60032-12.97408-63.7952-20.9408-102.4-20.9408C178.80064 716.8 102.4 762.64448 102.4 819.2c0 56.56576 76.40064 102.4 170.67008 102.4 94.2592 0 170.65984-45.83424 170.65984-102.4V432.9984l409.6-102.4v270.60224c-28.60032-12.96384-63.7952-20.93056-102.4-20.93056-94.2592 0-170.65984 45.83424-170.65984 102.4s76.40064 102.4 170.65984 102.4c94.30016 0 170.67008-45.83424 170.67008-102.4V102.4L375.47008 238.94016z m-102.4 622.92992c-56.56576 0-102.4-19.06688-102.4-42.67008s45.83424-42.65984 102.4-42.65984c56.55552 0 102.4 19.05664 102.4 42.65984s-45.84448 42.67008-102.4 42.67008zM443.72992 362.5984v-70.35904l409.6-102.4v70.35904l-409.6 102.4z m307.2 362.74176c-56.55552 0-102.4-19.06688-102.4-42.67008s45.84448-42.67008 102.4-42.67008c56.56576 0 102.4 19.06688 102.4 42.67008s-45.83424 42.67008-102.4 42.67008z" p-id="1053"></path></svg>